<svg width="65" height="64" viewBox="0 0 65 64" fill="none" xmlns="http://www.w3.org/2000/svg">
<rect x="0.5" width="64" height="64" rx="32" fill="#FCFAED"/>
<g clip-path="url(#clip0_437_51679)">
<path d="M45.5 46H44.5V26H40.5V46H37.5V31H33.5V46H30.5V36H26.5V46H23.5V41H19.5V46H18.5C18.2348 46 17.9804 46.1054 17.7929 46.2929C17.6054 46.4804 17.5 46.7348 17.5 47C17.5 47.2652 17.6054 47.5196 17.7929 47.7071C17.9804 47.8946 18.2348 48 18.5 48H45.5C45.7652 48 46.0196 47.8946 46.2071 47.7071C46.3946 47.5196 46.5 47.2652 46.5 47C46.5 46.7348 46.3946 46.4804 46.2071 46.2929C46.0196 46.1054 45.7652 46 45.5 46Z" fill="#E3C948"/>
<path d="M20 38.0003C20.2164 38.0003 20.4269 37.9301 20.6 37.8003L42.8 20.2503L42.55 22.9003C42.5362 23.0317 42.5486 23.1646 42.5864 23.2912C42.6243 23.4178 42.6869 23.5357 42.7706 23.638C42.8543 23.7403 42.9574 23.825 43.074 23.8871C43.1906 23.9493 43.3184 23.9878 43.45 24.0003H43.55C43.7988 24.0015 44.0391 23.91 44.224 23.7436C44.4089 23.5772 44.5251 23.3478 44.55 23.1003L45.1 17.2003L39.2 16.0003C38.9348 15.9472 38.6594 16.0017 38.4343 16.1517C38.2093 16.3018 38.053 16.5351 38 16.8003C37.947 17.0655 38.0014 17.3409 38.1515 17.566C38.3015 17.791 38.5348 17.9472 38.8 18.0003L41.7 18.6003L19.4 36.2003C19.2321 36.3262 19.1081 36.5018 19.0455 36.7021C18.9829 36.9024 18.9849 37.1174 19.0513 37.3165C19.1177 37.5156 19.245 37.6888 19.4153 37.8115C19.5856 37.9342 19.7901 38.0003 20 38.0003Z" fill="#E3C948"/>
</g>
<defs>
<clipPath id="clip0_437_51679">
<rect width="32" height="32" fill="white" transform="translate(16 16)"/>
</clipPath>
</defs>
</svg>
