<svg width="65" height="64" viewBox="0 0 65 64" fill="none" xmlns="http://www.w3.org/2000/svg">
<rect x="0.5" width="64" height="64" rx="32" fill="#EBF6EE"/>
<g clip-path="url(#clip0_437_51685)">
<path d="M44.3129 20.6855C42.0753 18.4478 39.2244 16.9239 36.1207 16.3065C33.017 15.6891 29.7999 16.0059 26.8762 17.2169C23.9526 18.4279 21.4537 20.4786 19.6956 23.1098C17.9374 25.741 16.999 28.8345 16.999 31.999C16.999 35.1636 17.9374 38.257 19.6956 40.8882C21.4537 43.5194 23.9526 45.5702 26.8762 46.7812C29.7999 47.9921 33.017 48.309 36.1207 47.6916C39.2244 47.0741 42.0753 45.5502 44.3129 43.3125C47.3134 40.312 48.999 36.2424 48.999 31.999C48.999 27.7557 47.3134 23.6861 44.3129 20.6855ZM40.6849 29.2275L31.9949 37.9175L26.7914 32.714C26.6959 32.6218 26.6197 32.5114 26.5673 32.3894C26.5149 32.2674 26.4873 32.1362 26.4862 32.0034C26.485 31.8707 26.5103 31.739 26.5606 31.6161C26.6109 31.4932 26.6852 31.3815 26.779 31.2876C26.8729 31.1937 26.9846 31.1195 27.1075 31.0692C27.2304 31.0189 27.3621 30.9936 27.4948 30.9948C27.6276 30.9959 27.7588 31.0235 27.8808 31.0759C28.0028 31.1283 28.1132 31.2045 28.2054 31.3L31.9944 35.089L39.2709 27.814C39.46 27.6344 39.7117 27.5357 39.9725 27.539C40.2332 27.5423 40.4824 27.6473 40.6668 27.8317C40.8513 28.016 40.9564 28.2651 40.9598 28.5259C40.9631 28.7867 40.8645 29.0384 40.6849 29.2275Z" fill="#34A853"/>
</g>
<defs>
<clipPath id="clip0_437_51685">
<rect width="32" height="32" fill="white" transform="translate(17 16)"/>
</clipPath>
</defs>
</svg>
