<svg width="65" height="64" viewBox="0 0 65 64" fill="none" xmlns="http://www.w3.org/2000/svg">
<rect x="0.5" width="64" height="64" rx="32" fill="#FFF0E6"/>
<path d="M32 17C29.0333 17 26.1332 17.8797 23.6665 19.528C21.1997 21.1762 19.2771 23.5189 18.1418 26.2597C17.0065 29.0006 16.7094 32.0166 17.2882 34.9264C17.867 37.8361 19.2956 40.5088 21.3934 42.6066C23.4912 44.7044 26.1639 46.133 29.0737 46.7118C31.9834 47.2906 34.9994 46.9935 37.7403 45.8582C40.4812 44.7229 42.8238 42.8003 44.4721 40.3336C46.1203 37.8668 47 34.9667 47 32C47 28.0218 45.4197 24.2064 42.6066 21.3934C39.7936 18.5804 35.9783 17 32 17ZM37 27C37.3956 27 37.7823 27.1173 38.1111 27.3371C38.44 27.5568 38.6964 27.8692 38.8478 28.2346C38.9991 28.6001 39.0387 29.0022 38.9616 29.3902C38.8844 29.7781 38.6939 30.1345 38.4142 30.4142C38.1345 30.6939 37.7782 30.8844 37.3902 30.9616C37.0022 31.0387 36.6001 30.9991 36.2346 30.8478C35.8692 30.6964 35.5568 30.44 35.3371 30.1111C35.1173 29.7822 35 29.3956 35 29C35 28.4696 35.2107 27.9609 35.5858 27.5858C35.9609 27.2107 36.4696 27 37 27ZM27 27C27.3956 27 27.7822 27.1173 28.1111 27.3371C28.44 27.5568 28.6964 27.8692 28.8478 28.2346C28.9991 28.6001 29.0387 29.0022 28.9616 29.3902C28.8844 29.7781 28.6939 30.1345 28.4142 30.4142C28.1345 30.6939 27.7781 30.8844 27.3902 30.9616C27.0022 31.0387 26.6001 30.9991 26.2346 30.8478C25.8692 30.6964 25.5568 30.44 25.3371 30.1111C25.1173 29.7822 25 29.3956 25 29C25 28.4696 25.2107 27.9609 25.5858 27.5858C25.9609 27.2107 26.4696 27 27 27ZM32 43C27.7 43 24.1 39.95 23 36H41C39.9 39.95 36.3 43 32 43Z" fill="#FF6600"/>
</svg>
