<svg width="65" height="64" viewBox="0 0 65 64" fill="none" xmlns="http://www.w3.org/2000/svg">
<rect x="0.5" width="64" height="64" rx="32" fill="#4285F4" fill-opacity="0.1"/>
<path d="M30 21C27.4288 21 24.9154 21.7624 22.7776 23.1909C20.6398 24.6194 18.9735 26.6497 17.9896 29.0251C17.0056 31.4006 16.7482 34.0144 17.2498 36.5362C17.7514 39.0579 18.9895 41.3743 20.8076 43.1924C22.6257 45.0105 24.9421 46.2486 27.4638 46.7502C29.9856 47.2518 32.5995 46.9944 34.9749 46.0104C37.3503 45.0265 39.3807 43.3603 40.8091 41.2224C42.2376 39.0846 43 36.5712 43 34H30V21Z" fill="#4285F4"/>
<path d="M34 17V30H47C47 28.2928 46.6637 26.6023 46.0104 25.0251C45.3571 23.4479 44.3996 22.0148 43.1924 20.8076C41.9852 19.6005 40.5521 18.6429 38.9749 17.9896C37.3977 17.3363 35.7072 17 34 17Z" fill="#4285F4"/>
</svg>
