<svg width="24" height="24" viewBox="0 0 24 24" fill="none" xmlns="http://www.w3.org/2000/svg">
<path opacity="0.1" fill-rule="evenodd" clip-rule="evenodd" d="M0 12C0 5.37258 5.37258 0 12 0C18.6274 0 24 5.37258 24 12C24 18.6274 18.6274 24 12 24C5.37258 24 0 18.6274 0 12Z" fill="#7A7A7A"/>
<path d="M12.5833 13.3127H13.9375L14.4792 11.146H12.5833V10.0627C12.5833 9.50475 12.5833 8.97933 13.6667 8.97933H14.4792V7.15933C14.3026 7.13604 13.6358 7.0835 12.9316 7.0835C11.461 7.0835 10.4167 7.98104 10.4167 9.62933V11.146H8.79166V13.3127H10.4167V17.9168H12.5833V13.3127Z" fill="#18191F"/>
</svg>
