<svg width="72" height="72" viewBox="0 0 72 72" fill="none" xmlns="http://www.w3.org/2000/svg">
<rect width="72" height="72" rx="36" fill="#EBF6EE"/>
<path d="M45.56 29.3534C44.9867 26.46 42.84 25.1934 39.8533 25.1934H28.1467C24.6267 25.1934 22.28 26.9534 22.28 31.06V37.9267C22.28 40.8867 23.4933 42.62 25.4933 43.3667C25.7867 43.4734 26.1067 43.5667 26.44 43.62C26.9733 43.74 27.5467 43.7934 28.1467 43.7934H39.8667C43.3867 43.7934 45.7333 42.0334 45.7333 37.9267V31.06C45.7333 30.4334 45.68 29.8734 45.56 29.3534ZM27.3733 36.5C27.3733 37.0467 26.92 37.5 26.3733 37.5C25.8267 37.5 25.3733 37.0467 25.3733 36.5V32.5C25.3733 31.9534 25.8267 31.5 26.3733 31.5C26.92 31.5 27.3733 31.9534 27.3733 32.5V36.5ZM34 38.02C32.0533 38.02 30.48 36.4467 30.48 34.5C30.48 32.5534 32.0533 30.98 34 30.98C35.9467 30.98 37.52 32.5534 37.52 34.5C37.52 36.4467 35.9467 38.02 34 38.02ZM42.6133 36.5C42.6133 37.0467 42.16 37.5 41.6133 37.5C41.0667 37.5 40.6133 37.0467 40.6133 36.5V32.5C40.6133 31.9534 41.0667 31.5 41.6133 31.5C42.16 31.5 42.6133 31.9534 42.6133 32.5V36.5Z" fill="#34A853"/>
<path d="M49.7333 35.06V41.9266C49.7333 46.0333 47.3867 47.8066 43.8533 47.8066H32.1467C31.1467 47.8066 30.2533 47.66 29.48 47.3666C28.8533 47.14 28.3067 46.8066 27.8667 46.38C27.6267 46.1533 27.8133 45.7933 28.1467 45.7933H39.8533C44.7867 45.7933 47.72 42.86 47.72 37.94V31.06C47.72 30.74 48.08 30.54 48.3067 30.78C49.2133 31.74 49.7333 33.14 49.7333 35.06Z" fill="#34A853"/>
</svg>
