<svg width="72" height="72" viewBox="0 0 72 72" fill="none" xmlns="http://www.w3.org/2000/svg">
<rect width="72" height="72" rx="36" fill="#F9ECFF"/>
<path d="M40.2933 28.7334H27.7067C27.3333 28.7334 26.9867 28.7467 26.6667 28.7601C23.5067 28.9467 22.6667 30.1067 22.6667 33.7067V34.4801C22.6667 35.2134 23.2667 35.8134 24 35.8134H44C44.7333 35.8134 45.3333 35.2134 45.3333 34.4801V33.7067C45.3333 29.7334 44.32 28.7334 40.2933 28.7334Z" fill="#C543FF"/>
<path d="M24 37.8132C23.2667 37.8132 22.6667 38.4132 22.6667 39.1466V43.0266C22.6667 46.9999 23.68 47.9999 27.7067 47.9999H40.2933C44.2533 47.9999 45.2933 47.0399 45.3333 43.2399V39.1466C45.3333 38.4132 44.7333 37.8132 44 37.8132H24ZM29.28 44.7466H27C26.4533 44.7466 26 44.2932 26 43.7466C26 43.1999 26.4533 42.7466 27 42.7466H29.2933C29.84 42.7466 30.2933 43.1999 30.2933 43.7466C30.2933 44.2932 29.84 44.7466 29.28 44.7466ZM36.7333 44.7466H32.1467C31.6 44.7466 31.1467 44.2932 31.1467 43.7466C31.1467 43.1999 31.6 42.7466 32.1467 42.7466H36.7333C37.28 42.7466 37.7333 43.1999 37.7333 43.7466C37.7333 44.2932 37.2933 44.7466 36.7333 44.7466Z" fill="#C543FF"/>
<path d="M49.3333 37.7734V30.7867C49.3333 26.6134 46.9467 24.8 43.3467 24.8H31.44C30.4267 24.8 29.52 24.9467 28.72 25.2534C28.0933 25.48 27.5333 25.8134 27.08 26.2534C26.84 26.48 27.0267 26.8534 27.3733 26.8534H41.8667C44.8667 26.8534 47.2933 29.28 47.2933 32.28V41.84C47.2933 42.1734 47.6533 42.36 47.8933 42.12C48.8133 41.1467 49.3333 39.72 49.3333 37.7734Z" fill="#C543FF"/>
</svg>
