<svg width="72" height="72" viewBox="0 0 72 72" fill="none" xmlns="http://www.w3.org/2000/svg">
<rect width="72" height="72" rx="36" fill="#ECF3FE"/>
<g clip-path="url(#clip0_119_128)">
<path d="M46 25.3934C46 25.3801 46 25.3667 45.9733 25.3534C45.68 24.9801 45.2933 24.7801 44.84 24.7801C44.1333 24.7801 43.28 25.2467 42.36 26.2334C41.2667 27.4067 39.5867 27.3134 38.6267 26.0334L37.28 24.2467C36.7467 23.5267 36.04 23.1667 35.3333 23.1667C34.6267 23.1667 33.92 23.5267 33.3867 24.2467L32.0267 26.0467C31.08 27.3134 29.4133 27.4067 28.32 26.2467L28.3067 26.2334C26.8 24.6201 25.4533 24.3801 24.6933 25.3534C24.6667 25.3667 24.6667 25.3801 24.6667 25.3934C24.1867 26.4201 24 27.8601 24 29.8867V43.1134C24 45.1401 24.1867 46.5801 24.6667 47.6067C24.6667 47.6201 24.68 47.6467 24.6933 47.6601C25.4667 48.6201 26.8 48.3801 28.3067 46.7668L28.32 46.7534C29.4133 45.5934 31.08 45.6867 32.0267 46.9534L33.3867 48.7534C33.92 49.4734 34.6267 49.8334 35.3333 49.8334C36.04 49.8334 36.7467 49.4734 37.28 48.7534L38.6267 46.9667C39.5867 45.6867 41.2667 45.5934 42.36 46.7668C43.28 47.7534 44.1333 48.2201 44.84 48.2201C45.2933 48.2201 45.68 48.0334 45.9733 47.6601C45.9867 47.6467 46 47.6201 46 47.6067C46.48 46.5801 46.6667 45.1401 46.6667 43.1134V29.8867C46.6667 27.8601 46.48 26.4201 46 25.3934ZM38.6667 39.8334H30.6667C30.12 39.8334 29.6667 39.3801 29.6667 38.8334C29.6667 38.2867 30.12 37.8334 30.6667 37.8334H38.6667C39.2133 37.8334 39.6667 38.2867 39.6667 38.8334C39.6667 39.3801 39.2133 39.8334 38.6667 39.8334ZM41.3333 35.1667H30.6667C30.12 35.1667 29.6667 34.7134 29.6667 34.1667C29.6667 33.6201 30.12 33.1667 30.6667 33.1667H41.3333C41.88 33.1667 42.3333 33.6201 42.3333 34.1667C42.3333 34.7134 41.88 35.1667 41.3333 35.1667Z" fill="#4285F4"/>
</g>
<defs>
<clipPath id="clip0_119_128">
<rect width="32" height="32" fill="white" transform="translate(20 20.5)"/>
</clipPath>
</defs>
</svg>
