<svg width="72" height="72" viewBox="0 0 72 72" fill="none" xmlns="http://www.w3.org/2000/svg">
<rect width="72" height="72" rx="36" fill="#FFF0E6"/>
<path d="M36 23.1667C32.5067 23.1667 29.6667 26.0067 29.6667 29.5001C29.6667 32.9267 32.3467 35.7001 35.84 35.8201C35.9467 35.8067 36.0533 35.8067 36.1333 35.8201C36.16 35.8201 36.1733 35.8201 36.2 35.8201C36.2133 35.8201 36.2133 35.8201 36.2267 35.8201C39.64 35.7001 42.32 32.9267 42.3333 29.5001C42.3333 26.0067 39.4933 23.1667 36 23.1667Z" fill="#FF6600"/>
<path d="M42.7733 39.3666C39.0533 36.8866 32.9867 36.8866 29.24 39.3666C27.5467 40.4999 26.6133 42.0333 26.6133 43.6733C26.6133 45.3133 27.5467 46.8333 29.2267 47.9533C31.0933 49.2066 33.5467 49.8333 36 49.8333C38.4533 49.8333 40.9067 49.2066 42.7733 47.9533C44.4533 46.8199 45.3867 45.2999 45.3867 43.6466C45.3733 42.0066 44.4533 40.4866 42.7733 39.3666Z" fill="#FF6600"/>
</svg>
